# xmcd
#
# Track frame offsets:
# 150
# 15947
# 38046
# 82877
# 94844
# 121539
# 139240
# 155520
# 171757
# 192085
# 211702
# 236185
# 260120
# 286636
# 303463
#
# Disc length: 4338 seconds
#
#
# Revision: 0
# Processed by: cddbd v1.5.1PL0 Copyright (c) Steve Scherf et al.
# Submitted via: FreeRIP 2.942 
#
DISCID=bb10f00f
DTITLE=Williams´ Wetsox - 20 Jahr
DYEAR=1999
DGENRE=Bayerisch-Blues
TTITLE0=Bad Beat Boogie
TTITLE1=Da Zug Der Fahrt
TTITLE2=Frühling Im Westend
TTITLE3=Am Bach Drunt
TTITLE4=Da Letzte Tanz
TTITLE5=Weit Furt
TTITLE6=Mei Herz Is Brochn
TTITLE7=Für Anna Melina
TTITLE8=Toni´s Groove
TTITLE9=Alle Meine Freind
TTITLE10=Da Deife
TTITLE11=s´Lebn Is A Loata
TTITLE12=Am Kochel - Und Am Walchensee
TTITLE13=Drunt In Huglfing
TTITLE14=Hey Schaffner 1999
EXTD=
EXTT0=
EXTT1=
EXTT2=
EXTT3=
EXTT4=
EXTT5=
EXTT6=
EXTT7=
EXTT8=
EXTT9=
EXTT10=
EXTT11=
EXTT12=
EXTT13=
EXTT14=
PLAYORDER=
